<?xml version="1.0" standalone="no"?>
<!DOCTYPE svg PUBLIC "-//W3C//DTD SVG 20010904//EN"
 "http://www.w3.org/TR/2001/REC-SVG-20010904/DTD/svg10.dtd">
<svg version="1.0" xmlns="http://www.w3.org/2000/svg"
 width="619.000000pt" height="604.000000pt" viewBox="0 0 619.000000 604.000000"
 preserveAspectRatio="xMidYMid meet">

<g transform="translate(0.000000,604.000000) scale(0.100000,-0.100000)"
fill="#000000" stroke="none">
<path d="M2810 5844 c-277 -37 -583 -145 -797 -281 -233 -147 -439 -371 -538
-585 -87 -190 -123 -416 -95 -608 5 -35 8 -65 7 -67 -1 -1 -38 11 -82 26 -168
60 -322 65 -488 16 -366 -106 -596 -405 -614 -797 -7 -143 6 -215 56 -323 68
-144 186 -257 358 -338 63 -30 76 -32 173 -32 99 0 109 2 178 34 52 25 87 50
123 89 59 65 71 87 118 217 22 59 43 101 51 103 11 2 23 -23 43 -85 62 -191
126 -313 214 -407 24 -24 43 -50 43 -55 0 -7 -30 -11 -79 -11 -508 0 -875
-217 -991 -585 -28 -87 -38 -273 -20 -358 16 -77 79 -200 135 -264 54 -62 185
-151 270 -183 83 -32 206 -32 290 0 147 55 232 166 254 333 6 43 15 87 21 97
17 32 61 60 95 60 37 0 222 -53 236 -67 6 -6 -12 -35 -52 -78 -266 -293 -320
-689 -137 -1000 78 -131 237 -271 408 -356 297 -148 621 -60 749 203 46 96 57
181 37 303 -26 154 -96 274 -200 346 -20 13 -36 29 -36 35 0 22 41 63 118 117
114 81 203 161 288 261 90 106 113 125 157 133 33 5 38 1 116 -90 85 -98 193
-195 296 -264 33 -22 84 -59 113 -83 l54 -42 -62 -29 c-67 -31 -159 -112 -197
-173 -86 -136 -86 -342 0 -486 63 -105 207 -223 332 -269 158 -59 326 -44 500
46 283 146 431 406 412 721 -12 203 -88 413 -201 560 -31 40 -56 78 -56 85 0
32 60 70 156 98 53 16 109 29 125 29 28 0 29 -2 29 -44 0 -180 95 -321 280
-414 136 -68 234 -76 360 -29 156 57 286 217 320 395 27 137 -13 369 -89 520
-98 193 -272 334 -507 411 -104 34 -196 49 -347 59 l-108 7 73 145 c40 80 90
188 111 241 21 53 51 112 67 130 l29 34 1 -35 c1 -47 39 -137 84 -199 45 -60
103 -105 214 -161 72 -37 93 -43 166 -47 141 -9 259 39 370 150 161 160 209
383 142 657 -58 237 -125 361 -266 493 -67 63 -104 88 -194 132 -61 30 -142
62 -181 72 -95 23 -286 23 -379 0 -49 -13 -71 -14 -76 -7 -4 7 -10 65 -14 130
-13 237 -104 504 -233 685 -347 485 -1067 768 -1733 679z m-1785 -1664 c-3 -5
-26 -10 -49 -10 l-43 0 -54 -127 c-50 -121 -57 -132 -124 -195 -91 -85 -137
-171 -143 -265 l-4 -65 32 17 c25 13 32 14 28 4 -3 -8 -38 -92 -79 -188 l-73
-174 -33 38 c-104 120 -127 295 -67 502 36 125 77 197 164 283 83 84 195 147
305 174 71 17 149 20 140 6z m35 6 c0 -3 -4 -8 -10 -11 -5 -3 -10 -1 -10 4 0
6 5 11 10 11 6 0 10 -2 10 -4z m4000 -6 c0 -5 -2 -10 -4 -10 -3 0 -8 5 -11 10
-3 6 -1 10 4 10 6 0 11 -4 11 -10z m140 -6 c157 -36 324 -153 399 -279 102
-169 136 -396 82 -549 -21 -60 -79 -150 -96 -149 -9 1 -157 343 -148 343 2 0
13 -5 24 -10 18 -10 19 -7 19 48 0 84 -48 178 -134 260 -59 57 -68 72 -121
197 l-57 135 -44 0 c-23 0 -46 5 -49 10 -9 15 50 12 125 -6z m-2544 -483 c-3
-5 -32 -12 -63 -16 -32 -3 -69 -9 -83 -12 -47 -11 -14 6 41 21 62 17 113 20
105 7z m897 -11 c16 -8 5 -9 -38 -4 -33 3 -67 10 -75 16 -19 12 81 1 113 -12z
m1549 -1206 c180 -76 312 -220 363 -398 26 -91 18 -243 -18 -317 -76 -158
-225 -237 -368 -196 -56 17 -121 63 -140 100 l-12 22 24 -22 c65 -59 178 -79
272 -47 103 35 196 159 217 291 22 138 -32 297 -138 402 -60 61 -180 127 -272
151 -44 12 -44 12 -20 26 31 17 21 18 92 -12z m-4164 -67 c9 3 -5 -9 -32 -27
-167 -114 -257 -302 -228 -476 30 -183 154 -304 320 -312 39 -2 72 -8 72 -12
0 -17 -74 -32 -125 -27 -111 11 -214 90 -269 207 -29 61 -31 72 -30 175 1 158
42 269 138 373 48 53 130 115 134 102 2 -5 11 -6 20 -3z m3491 -1099 c61 -187
50 -336 -37 -502 -40 -76 -102 -145 -177 -196 l-50 -34 71 76 c159 168 210
382 144 603 -33 110 -33 115 0 115 26 0 30 -5 49 -62z m-2673 13 c-15 -23 -36
-174 -36 -251 0 -164 55 -302 165 -417 33 -35 57 -63 54 -63 -14 0 -106 78
-145 123 -52 59 -99 154 -120 243 -19 83 -14 240 11 322 14 48 18 52 46 52 17
0 28 -4 25 -9z"/>
</g>
</svg>
