<?xml version="1.0" standalone="no"?>
<!DOCTYPE svg PUBLIC "-//W3C//DTD SVG 20010904//EN"
 "http://www.w3.org/TR/2001/REC-SVG-20010904/DTD/svg10.dtd">
<svg version="1.0" xmlns="http://www.w3.org/2000/svg"
 width="534.000000pt" height="202.000000pt" viewBox="0 0 534.000000 202.000000"
 preserveAspectRatio="xMidYMid meet">

<g transform="translate(0.000000,202.000000) scale(0.100000,-0.100000)"
fill="#000000" stroke="none">
<path d="M883 1835 c-209 -38 -364 -186 -367 -350 -1 -52 -4 -64 -16 -61 -95
26 -161 12 -230 -51 -58 -52 -86 -124 -77 -200 5 -50 43 -113 78 -130 71 -34
139 -63 151 -63 7 0 -5 -9 -27 -19 -103 -46 -160 -171 -121 -264 27 -66 126
-117 225 -117 41 0 41 0 41 -37 0 -100 54 -177 157 -224 77 -36 122 -37 162
-3 35 29 51 76 51 154 0 59 19 98 60 127 29 21 90 20 123 -1 l26 -18 -30 -40
c-46 -64 -34 -152 27 -195 35 -24 122 -53 159 -53 68 0 134 62 156 145 6 22
15 57 20 77 14 55 32 68 95 68 68 0 117 20 141 56 14 22 17 44 15 102 -3 84
-28 149 -73 186 -16 14 -29 27 -29 30 0 3 21 15 48 26 98 43 129 98 117 208
-15 154 -113 252 -251 252 -37 0 -55 24 -69 90 -31 146 -183 272 -370 305 -95
17 -99 17 -192 0z m-495 -482 c-7 -16 -25 -41 -41 -58 -41 -42 -63 -103 -33
-92 11 4 10 -6 -6 -44 -11 -27 -24 -49 -28 -49 -7 0 -24 31 -34 63 -8 26 12
105 35 139 20 27 81 67 106 68 10 0 10 -6 1 -27z m1221 7 c52 -26 77 -61 92
-123 9 -45 9 -58 -6 -92 l-17 -40 -19 43 c-10 24 -16 48 -13 54 10 16 -5 56
-34 90 -27 32 -57 88 -46 88 2 0 22 -9 43 -20z m-742 -116 c-3 -3 -12 -4 -19
-1 -8 3 -5 6 6 6 11 1 17 -2 13 -5z m240 0 c-3 -3 -12 -4 -19 -1 -8 3 -5 6 6
6 11 1 17 -2 13 -5z m533 -480 c0 -42 -5 -56 -26 -78 -30 -30 -84 -35 -104
-11 -11 14 -10 14 14 5 32 -12 79 8 96 39 13 25 13 86 -1 114 -10 21 -10 21 5
3 10 -12 16 -40 16 -72z m-1253 -90 c47 -10 49 -12 15 -13 -37 -1 -82 36 -82
66 0 13 6 8 20 -14 11 -19 31 -35 47 -39z m975 -110 c15 -56 -17 -140 -64
-165 -21 -11 -20 -10 5 20 37 45 52 98 39 145 -8 27 -8 36 1 33 6 -2 14 -17
19 -33z m-747 -13 c-7 -44 12 -101 48 -140 l22 -24 -23 12 c-44 23 -77 101
-66 158 9 47 27 42 19 -6z"/>
<path d="M3350 1831 c0 -13 -158 -1416 -165 -1469 l-6 -42 104 0 105 0 7 98
c3 53 8 114 11 135 l6 37 54 0 54 0 0 -104 c0 -57 3 -118 6 -135 l7 -31 103 0
103 0 -5 32 c-6 39 -154 1462 -154 1477 0 7 -41 11 -115 11 -64 0 -115 -4
-115 -9z m120 -313 c0 -59 10 -283 26 -595 l7 -133 -43 0 -42 0 6 103 c15 240
26 470 26 575 0 68 4 112 10 112 6 0 10 -28 10 -62z m-190 -823 l0 -365 -46 0
c-38 0 -45 3 -41 18 3 9 22 173 44 365 21 191 39 347 40 347 2 0 3 -164 3
-365z"/>
<path d="M1970 1075 l0 -755 105 0 105 0 0 351 c0 377 2 389 47 299 35 -70 53
-219 53 -447 l0 -203 105 0 105 0 0 214 c0 300 -22 432 -89 538 l-30 46 34 64
c64 121 77 188 82 431 l5 217 -106 0 -106 0 0 -177 c0 -98 -5 -209 -10 -248
-13 -91 -46 -188 -70 -210 -20 -18 -20 -15 -20 308 l0 327 -105 0 -105 0 0
-755z m100 0 l0 -745 -45 0 -45 0 0 745 0 745 45 0 45 0 0 -745z"/>
<path d="M2580 1076 l0 -756 105 0 105 0 0 326 c0 356 0 354 53 257 46 -86 78
-250 93 -480 l7 -103 103 0 c95 0 104 2 104 19 0 44 -32 327 -45 405 -21 122
-60 237 -100 296 l-35 52 35 42 c57 70 87 147 93 242 6 104 -10 191 -50 267
-38 71 -82 111 -166 150 -57 27 -78 31 -183 35 l-119 5 0 -757z m100 -1 l0
-745 -45 0 -45 0 0 745 0 745 45 0 45 0 0 -745z m189 471 c51 -82 48 -233 -6
-310 -51 -72 -53 -67 -53 159 0 199 1 205 19 195 11 -5 29 -25 40 -44z"/>
<path d="M3800 1075 l0 -755 105 0 105 0 0 351 c0 370 2 382 43 312 36 -63 49
-158 54 -415 l5 -248 104 0 104 0 0 213 c0 300 -28 456 -99 556 l-21 30 35 64
c62 112 77 193 82 435 l5 212 -105 0 -105 0 -5 -217 c-5 -237 -23 -341 -69
-406 l-23 -32 -3 328 -2 327 -105 0 -105 0 0 -755z m100 0 l0 -745 -45 0 -45
0 0 745 0 745 45 0 45 0 0 -745z"/>
<path d="M4410 1075 l0 -755 175 0 175 0 0 100 0 100 -70 0 -70 0 0 220 0 220
70 0 70 0 0 100 0 100 -70 0 -70 0 0 235 0 235 70 0 70 0 0 100 0 100 -175 0
-175 0 0 -755z m70 0 l0 -745 -30 0 -30 0 0 745 0 745 30 0 30 0 0 -745z"/>
<path d="M4830 1075 l0 -755 101 0 102 0 -7 298 c-3 163 -9 347 -12 407 -4 61
-4 108 -1 105 4 -4 137 -785 137 -806 0 -2 41 -4 90 -4 l90 0 0 755 0 755
-101 0 -102 0 7 -207 c12 -403 16 -578 11 -568 -3 8 -125 756 -125 771 0 2
-43 4 -95 4 l-95 0 0 -755z m90 0 l0 -745 -40 0 -40 0 0 745 0 745 40 0 40 0
0 -745z"/>
</g>
</svg>
